<mxfile host="www.draw.io" modified="2023-04-12T16:54:20.794Z" agent="Mozilla/5.0 (Windows NT 10.0; Win64; x64) AppleWebKit/537.36 (KHTML, like Gecko) Chrome/111.0.0.0 Safari/537.36" etag="XAwI7_E0o-m-A0lkb1fP" version="21.1.7" type="device">
  <diagram name="Page-1" id="DxeCVX9IiPVw-4G3ah-j">
    <mxGraphModel dx="522" dy="547" grid="1" gridSize="10" guides="1" tooltips="1" connect="1" arrows="1" fold="1" page="1" pageScale="1" pageWidth="850" pageHeight="1100" math="0" shadow="0">
      <root>
        <mxCell id="0" />
        <mxCell id="1" parent="0" />
        <mxCell id="qxfF20Bdla1Y0X5OeA7Q-3" value="ε,&amp;nbsp;ε-&amp;gt;$" style="edgeStyle=orthogonalEdgeStyle;rounded=0;orthogonalLoop=1;jettySize=auto;html=1;" edge="1" parent="1" source="qxfF20Bdla1Y0X5OeA7Q-1" target="qxfF20Bdla1Y0X5OeA7Q-2">
          <mxGeometry relative="1" as="geometry" />
        </mxCell>
        <mxCell id="qxfF20Bdla1Y0X5OeA7Q-1" value="qs" style="ellipse;whiteSpace=wrap;html=1;" vertex="1" parent="1">
          <mxGeometry x="110" y="170" width="80" height="80" as="geometry" />
        </mxCell>
        <mxCell id="qxfF20Bdla1Y0X5OeA7Q-5" value="ε, $-&amp;gt;ε" style="edgeStyle=orthogonalEdgeStyle;rounded=0;orthogonalLoop=1;jettySize=auto;html=1;" edge="1" parent="1" source="qxfF20Bdla1Y0X5OeA7Q-2" target="qxfF20Bdla1Y0X5OeA7Q-4">
          <mxGeometry relative="1" as="geometry" />
        </mxCell>
        <mxCell id="qxfF20Bdla1Y0X5OeA7Q-2" value="qloop" style="ellipse;whiteSpace=wrap;html=1;" vertex="1" parent="1">
          <mxGeometry x="280" y="170" width="80" height="80" as="geometry" />
        </mxCell>
        <mxCell id="qxfF20Bdla1Y0X5OeA7Q-4" value="qaccept" style="ellipse;whiteSpace=wrap;html=1;" vertex="1" parent="1">
          <mxGeometry x="280" y="340" width="80" height="80" as="geometry" />
        </mxCell>
        <mxCell id="qxfF20Bdla1Y0X5OeA7Q-6" style="edgeStyle=orthogonalEdgeStyle;rounded=0;orthogonalLoop=1;jettySize=auto;html=1;exitX=0.5;exitY=0;exitDx=0;exitDy=0;entryX=1;entryY=0.5;entryDx=0;entryDy=0;" edge="1" parent="1" source="qxfF20Bdla1Y0X5OeA7Q-2" target="qxfF20Bdla1Y0X5OeA7Q-2">
          <mxGeometry relative="1" as="geometry" />
        </mxCell>
        <mxCell id="qxfF20Bdla1Y0X5OeA7Q-7" value="ε, S-&amp;gt;Q&lt;br&gt;ε, Q-&amp;gt;q&lt;br&gt;ε, Q-&amp;gt;Rqt&lt;br&gt;ε, R-&amp;gt;r&lt;br&gt;ε, R-&amp;gt;rT&lt;br&gt;ε, R-&amp;gt;QQr&lt;br&gt;ε, R-&amp;gt;ε&lt;br&gt;ε, T-&amp;gt;t&lt;br&gt;ε, T-&amp;gt;S&lt;br&gt;ε, T-&amp;gt;tT&lt;br&gt;q, q-&amp;gt;ε&lt;br&gt;r, r-&amp;gt;ε&lt;br&gt;t, t-&amp;gt;ε" style="text;html=1;align=center;verticalAlign=middle;resizable=0;points=[];autosize=1;strokeColor=none;fillColor=none;" vertex="1" parent="1">
          <mxGeometry x="385" y="10" width="80" height="200" as="geometry" />
        </mxCell>
        <mxCell id="qxfF20Bdla1Y0X5OeA7Q-8" value="S-&amp;gt;Q&lt;br&gt;Q-&amp;gt;q|RqT&lt;br&gt;R-&amp;gt;r|rT|QQr|ε&lt;br&gt;T-&amp;gt;t|S|tT" style="text;html=1;align=center;verticalAlign=middle;resizable=0;points=[];autosize=1;strokeColor=none;fillColor=none;" vertex="1" parent="1">
          <mxGeometry x="50" y="30" width="100" height="70" as="geometry" />
        </mxCell>
      </root>
    </mxGraphModel>
  </diagram>
</mxfile>
